ply
format ascii 1.0
element vertex 216
property float x
property float y
property float z
element face 336
property list uchar int vertex_indices
end_header
-0.013127549 1.023281513 0.912366496
-0.013127549 1.023281513 1.332812072
0.848602183 1.023489744 1.332812072
0.848602183 1.023489744 0.912366496
-0.008734393 0.448186217 0.912366496
0.852995340 0.448394449 0.912366496
0.852995340 0.448394449 1.332812072
-0.008830540 0.460853225 1.332812072
-0.008734376 0.448187175 1.332812072
0.884478671 -0.157326333 0.041927093
0.884478671 -0.157326333 0.462372668
0.884686840 -1.019056300 0.462372668
0.884686840 -1.019056300 0.041927093
0.309383451 -0.161720385 0.041927093
0.309590496 -1.023449374 0.041927093
0.309591637 -1.023449394 0.462372668
0.322050053 -0.161623338 0.462372668
0.309383451 -0.161720385 0.462372668
0.884478671 -0.157326333 0.475930947
0.884478671 -0.157326333 0.896376523
0.884686840 -1.019056300 0.896376523
0.884686840 -1.019056300 0.475930947
0.309383451 -0.161720385 0.475930947
0.309590496 -1.023449374 0.475930947
0.309591637 -1.023449394 0.896376523
0.322050053 -0.161623338 0.896376523
0.309383451 -0.161720385 0.896376523
0.884478671 -0.157326333 0.912366496
0.884478671 -0.157326333 1.332812072
0.884686840 -1.019056300 1.332812072
0.884686840 -1.019056300 0.912366496
0.309383451 -0.161720385 0.912366496
0.309590496 -1.023449374 0.912366496
0.309591637 -1.023449394 1.332812072
0.322050053 -0.161623338 1.332812072
0.309383451 -0.161720385 1.332812072
0.298727268 -0.157326658 0.041927093
0.298727268 -0.157326658 0.462372668
0.298935437 -1.019056626 0.462372668
0.298935437 -1.019056626 0.041927093
-0.276367952 -0.161720710 0.041927093
-0.276159766 -1.023449719 0.041927093
-0.276159766 -1.023449719 0.462372668
-0.263701350 -0.161623664 0.462372668
-0.276367952 -0.161720710 0.462372668
0.298727268 -0.157326658 0.475930947
0.298727268 -0.157326658 0.896376523
0.298935437 -1.019056626 0.896376523
0.298935437 -1.019056626 0.475930947
-0.276367952 -0.161720710 0.475930947
-0.276159766 -1.023449719 0.475930947
-0.276159766 -1.023449719 0.896376523
-0.263701350 -0.161623664 0.896376523
-0.276367952 -0.161720710 0.896376523
0.298727268 -0.157326658 0.912366496
0.298727268 -0.157326658 1.332812072
0.298935437 -1.019056626 1.332812072
0.298935437 -1.019056626 0.912366496
-0.276367952 -0.161720710 0.912366496
-0.276159766 -1.023449719 0.912366496
-0.276159766 -1.023449719 1.332812072
-0.263701350 -0.161623664 1.332812072
-0.276367952 -0.161720710 1.332812072
0.557993821 -0.157327260 1.346370351
0.557993821 -0.157327260 1.766815927
0.558202006 -1.019056270 1.766815927
0.558202006 -1.019056270 1.346370351
-0.017101383 -0.161720354 1.346370351
-0.016893197 -1.023449363 1.346370351
-0.016893197 -1.023449363 1.766815927
-0.004434798 -0.161624266 1.766815927
-0.017101383 -0.161720354 1.766815927
-0.013127533 1.023282471 0.041927093
-0.013127533 1.023282471 0.462372668
0.848602200 1.023490702 0.462372668
0.848602200 1.023490702 0.041927093
-0.008734376 0.448187175 0.041927093
0.852995356 0.448395407 0.041927093
0.852995356 0.448395407 0.462372668
-0.008830523 0.460854183 0.462372668
-0.008734359 0.448188133 0.462372668
-0.013127533 1.023282471 0.475930947
-0.013127533 1.023282471 0.896376523
0.848602200 1.023490702 0.896376523
0.848602200 1.023490702 0.475930947
-0.008734376 0.448187175 0.475930947
0.852995356 0.448395407 0.475930947
0.852995356 0.448395407 0.896376523
-0.008830523 0.460854183 0.896376523
-0.008734359 0.448188133 0.896376523
-0.013126811 0.437530369 0.041927093
-0.013126811 0.437530369 0.462372668
0.848602921 0.437738600 0.462372668
0.848602921 0.437738600 0.041927093
-0.008733655 -0.137564926 0.041927093
0.852996078 -0.137356695 0.041927093
0.852996078 -0.137356695 0.462372668
-0.008829802 -0.124897918 0.462372668
-0.008733638 -0.137563968 0.462372668
-0.013126811 0.437530369 0.475930947
-0.013126811 0.437530369 0.896376523
0.848602921 0.437738600 0.896376523
0.848602921 0.437738600 0.475930947
-0.008733655 -0.137564926 0.475930947
0.852996078 -0.137356695 0.475930947
0.852996078 -0.137356695 0.896376523
-0.008829802 -0.124897918 0.896376523
-0.008733638 -0.137563968 0.896376523
-0.013126811 0.437530369 0.912366496
-0.013126811 0.437530369 1.332812072
0.848602921 0.437738600 1.332812072
0.848602921 0.437738600 0.912366496
-0.008733655 -0.137564926 0.912366496
0.852996078 -0.137356695 0.912366496
0.852996078 -0.137356695 1.332812072
-0.008829802 -0.124897918 1.332812072
-0.008733638 -0.137563968 1.332812072
0.609072913 0.842415976 1.346370351
0.609072913 0.842415976 1.766815927
0.609281082 -0.019313992 1.766815927
0.609281082 -0.019313992 1.346370351
0.033978834 0.838021904 1.346370351
0.034185879 -0.023707085 1.346370351
0.034187020 -0.023707105 1.766815927
0.046645435 0.838118950 1.766815927
0.033978834 0.838021904 1.766815927
-0.884611925 1.023282838 0.041927093
-0.884611925 1.023282838 0.462372668
-0.022883333 1.023491089 0.462372668
-0.022883333 1.023491089 0.041927093
-0.880218768 0.448187543 0.041927093
-0.018489053 0.448394816 0.041927093
-0.018489036 0.448395774 0.462372668
-0.880314932 0.460853593 0.462372668
-0.880218768 0.448187543 0.462372668
-0.884611925 1.023282838 0.475930947
-0.884611925 1.023282838 0.896376523
-0.022883333 1.023491089 0.896376523
-0.022883333 1.023491089 0.475930947
-0.880218768 0.448187543 0.475930947
-0.018489053 0.448394816 0.475930947
-0.018489036 0.448395774 0.896376523
-0.880314932 0.460853593 0.896376523
-0.880218768 0.448187543 0.896376523
-0.884611925 1.023282838 0.912366496
-0.884611925 1.023282838 1.332812072
-0.022883333 1.023491089 1.332812072
-0.022883333 1.023491089 0.912366496
-0.880218768 0.448187543 0.912366496
-0.018489053 0.448394816 0.912366496
-0.018489036 0.448395774 1.332812072
-0.880314932 0.460853593 1.332812072
-0.880218768 0.448187543 1.332812072
-0.884612344 0.437530756 0.041927093
-0.884612344 0.437530756 0.462372668
-0.022882628 0.437738030 0.462372668
-0.022882628 0.437738030 0.041927093
-0.880218047 -0.137564559 0.041927093
-0.018488331 -0.137357285 0.041927093
-0.018488315 -0.137356327 0.462372668
-0.880314211 -0.124898509 0.462372668
-0.880218047 -0.137564559 0.462372668
-0.884612344 0.437530756 0.475930947
-0.884612344 0.437530756 0.896376523
-0.022882628 0.437738030 0.896376523
-0.022882628 0.437738030 0.475930947
-0.880218047 -0.137564559 0.475930947
-0.018488331 -0.137357285 0.475930947
-0.018488315 -0.137356327 0.896376523
-0.880314211 -0.124898509 0.896376523
-0.880218047 -0.137564559 0.896376523
-0.884612344 0.437530756 0.912366496
-0.884612344 0.437530756 1.332812072
-0.022882628 0.437738030 1.332812072
-0.022882628 0.437738030 0.912366496
-0.880218047 -0.137564559 0.912366496
-0.018488331 -0.137357285 0.912366496
-0.018488315 -0.137356327 1.332812072
-0.880314211 -0.124898509 1.332812072
-0.880218047 -0.137564559 1.332812072
-0.884611633 0.283539233 1.346370351
-0.884611633 0.283539233 1.766815927
-0.022881900 0.283747464 1.766815927
-0.022881900 0.283747464 1.346370351
-0.880218476 -0.291556062 1.346370351
-0.018487620 -0.291348809 1.346370351
-0.018487603 -0.291347851 1.766815927
-0.880314640 -0.278890012 1.766815927
-0.880218476 -0.291556062 1.766815927
-0.276016241 -0.157327475 0.041927093
-0.276016241 -0.157327475 0.462372668
-0.275809196 -1.019056465 0.462372668
-0.275809196 -1.019056465 0.041927093
-0.851111445 -0.161720569 0.041927093
-0.850904416 -1.023450516 0.041927093
-0.850903276 -1.023450536 0.462372668
-0.838444860 -0.161624481 0.462372668
-0.851111445 -0.161720569 0.462372668
-0.276016241 -0.157327475 0.475930947
-0.276016241 -0.157327475 0.896376523
-0.275809196 -1.019056465 0.896376523
-0.275809196 -1.019056465 0.475930947
-0.851111445 -0.161720569 0.475930947
-0.850904416 -1.023450516 0.475930947
-0.850903276 -1.023450536 0.896376523
-0.838444860 -0.161624481 0.896376523
-0.851111445 -0.161720569 0.896376523
-0.276016241 -0.157327475 0.912366496
-0.276016241 -0.157327475 1.332812072
-0.275809196 -1.019056465 1.332812072
-0.275809196 -1.019056465 0.912366496
-0.851111445 -0.161720569 0.912366496
-0.850904416 -1.023450516 0.912366496
-0.850903276 -1.023450536 1.332812072
-0.838444860 -0.161624481 1.332812072
-0.851111445 -0.161720569 1.332812072
3 2 0 1
3 0 2 3
3 3 4 0
3 4 3 5
3 7 2 1
3 2 7 6
3 8 6 7
3 6 3 2
3 3 6 5
3 6 8 4
3 6 4 5
3 7 4 8
3 4 7 0
3 7 1 0
3 11 9 10
3 9 11 12
3 12 13 9
3 13 12 14
3 15 16 17
3 11 16 15
3 16 11 10
3 15 12 11
3 12 15 14
3 15 17 13
3 15 13 14
3 16 13 17
3 13 16 9
3 16 10 9
3 20 18 19
3 18 20 21
3 21 22 18
3 22 21 23
3 24 25 26
3 20 25 24
3 25 20 19
3 24 21 20
3 21 24 23
3 24 26 22
3 24 22 23
3 25 22 26
3 22 25 18
3 25 19 18
3 29 27 28
3 27 29 30
3 30 31 27
3 31 30 32
3 33 34 35
3 29 34 33
3 34 29 28
3 33 30 29
3 30 33 32
3 33 35 31
3 33 31 32
3 34 31 35
3 31 34 27
3 34 28 27
3 38 36 37
3 36 38 39
3 39 40 36
3 40 39 41
3 42 43 44
3 38 43 42
3 43 38 37
3 42 39 38
3 39 42 41
3 42 44 40
3 42 40 41
3 43 40 44
3 40 43 36
3 43 37 36
3 47 45 46
3 45 47 48
3 48 49 45
3 49 48 50
3 51 52 53
3 47 52 51
3 52 47 46
3 51 48 47
3 48 51 50
3 51 53 49
3 51 49 50
3 52 49 53
3 49 52 45
3 52 46 45
3 56 54 55
3 54 56 57
3 57 58 54
3 58 57 59
3 60 61 62
3 56 61 60
3 61 56 55
3 60 57 56
3 57 60 59
3 60 62 58
3 60 58 59
3 61 58 62
3 58 61 54
3 61 55 54
3 65 63 64
3 63 65 66
3 66 67 63
3 67 66 68
3 69 70 71
3 65 70 69
3 70 65 64
3 69 66 65
3 66 69 68
3 69 71 67
3 69 67 68
3 70 67 71
3 67 70 63
3 70 64 63
3 74 72 73
3 72 74 75
3 75 76 72
3 76 75 77
3 79 74 73
3 74 79 78
3 80 78 79
3 78 75 74
3 75 78 77
3 78 80 76
3 78 76 77
3 79 76 80
3 76 79 72
3 79 73 72
3 83 81 82
3 81 83 84
3 84 85 81
3 85 84 86
3 88 83 82
3 83 88 87
3 89 87 88
3 87 84 83
3 84 87 86
3 87 89 85
3 87 85 86
3 88 85 89
3 85 88 81
3 88 82 81
3 92 90 91
3 90 92 93
3 93 94 90
3 94 93 95
3 97 92 91
3 92 97 96
3 98 96 97
3 96 93 92
3 93 96 95
3 96 98 94
3 96 94 95
3 97 94 98
3 94 97 90
3 97 91 90
3 101 99 100
3 99 101 102
3 102 103 99
3 103 102 104
3 106 101 100
3 101 106 105
3 107 105 106
3 105 102 101
3 102 105 104
3 105 107 103
3 105 103 104
3 106 103 107
3 103 106 99
3 106 100 99
3 110 108 109
3 108 110 111
3 111 112 108
3 112 111 113
3 115 110 109
3 110 115 114
3 116 114 115
3 114 111 110
3 111 114 113
3 114 116 112
3 114 112 113
3 115 112 116
3 112 115 108
3 115 109 108
3 119 117 118
3 117 119 120
3 120 121 117
3 121 120 122
3 123 124 125
3 119 124 123
3 124 119 118
3 123 120 119
3 120 123 122
3 123 125 121
3 123 121 122
3 124 121 125
3 121 124 117
3 124 118 117
3 128 126 127
3 126 128 129
3 129 130 126
3 130 129 131
3 133 128 127
3 128 133 132
3 134 132 133
3 132 129 128
3 129 132 131
3 132 134 130
3 132 130 131
3 133 130 134
3 130 133 126
3 133 127 126
3 137 135 136
3 135 137 138
3 138 139 135
3 139 138 140
3 142 137 136
3 137 142 141
3 143 141 142
3 141 138 137
3 138 141 140
3 141 143 139
3 141 139 140
3 142 139 143
3 139 142 135
3 142 136 135
3 146 144 145
3 144 146 147
3 147 148 144
3 148 147 149
3 151 146 145
3 146 151 150
3 152 150 151
3 150 147 146
3 147 150 149
3 150 152 148
3 150 148 149
3 151 148 152
3 148 151 144
3 151 145 144
3 155 153 154
3 153 155 156
3 156 157 153
3 157 156 158
3 160 155 154
3 155 160 159
3 161 159 160
3 159 156 155
3 156 159 158
3 159 161 157
3 159 157 158
3 160 157 161
3 157 160 153
3 160 154 153
3 164 162 163
3 162 164 165
3 165 166 162
3 166 165 167
3 169 164 163
3 164 169 168
3 170 168 169
3 168 165 164
3 165 168 167
3 168 170 166
3 168 166 167
3 169 166 170
3 166 169 162
3 169 163 162
3 173 171 172
3 171 173 174
3 174 175 171
3 175 174 176
3 178 173 172
3 173 178 177
3 179 177 178
3 177 174 173
3 174 177 176
3 177 179 175
3 177 175 176
3 178 175 179
3 175 178 171
3 178 172 171
3 182 180 181
3 180 182 183
3 183 184 180
3 184 183 185
3 187 182 181
3 182 187 186
3 188 186 187
3 186 183 182
3 183 186 185
3 186 188 184
3 186 184 185
3 187 184 188
3 184 187 180
3 187 181 180
3 191 189 190
3 189 191 192
3 192 193 189
3 193 192 194
3 195 196 197
3 191 196 195
3 196 191 190
3 195 192 191
3 192 195 194
3 195 197 193
3 195 193 194
3 196 193 197
3 193 196 189
3 196 190 189
3 200 198 199
3 198 200 201
3 201 202 198
3 202 201 203
3 204 205 206
3 200 205 204
3 205 200 199
3 204 201 200
3 201 204 203
3 204 206 202
3 204 202 203
3 205 202 206
3 202 205 198
3 205 199 198
3 209 207 208
3 207 209 210
3 210 211 207
3 211 210 212
3 213 214 215
3 209 214 213
3 214 209 208
3 213 210 209
3 210 213 212
3 213 215 211
3 213 211 212
3 214 211 215
3 211 214 207
3 214 208 207
